<?xml version="1.0" encoding="UTF-8"?><svg id="Camada_2" xmlns="http://www.w3.org/2000/svg" viewBox="0 0 176.99 176.99"><defs><style>.cls-1{fill:#fcfcfc;stroke:#fff;stroke-miterlimit:10;}.cls-2{fill:#5a00fb;stroke-width:0px;}</style></defs><g id="Camada_1-2"><rect class="cls-2" width="176.99" height="176.99" rx="47.34" ry="47.34"/><path class="cls-1" d="M102.96,89.27c-2.45-2.24-2.54-3.93-.64-6.48,3.15-4.22,3.78-8.93,1.82-13.9-1.17-2.97-3.14-5.22-5.76-7.07-3.74-2.65-3.8-4.62-.44-7.44,2.31-1.94,4.66-3.85,7.48-6.18-7.53-.43-14.35-.59-21.11-1.29-4.35-.45-7.52.51-9.96,4.34-1.64,2.58-3.96,4.74-5.94,7.11-1.81,2.16-3.58,4.36-5.61,6.83,3.72.45,6.85-.24,10.01-.42,3.4-.19,4.33.74,4.08,4.1-.04.52-.27,1.03-.4,1.54-1.16,4.74-.39,9.12,2.65,12.97,1.75,2.21,1.45,3.83-.67,5.7-7.62,6.74-10.99,15.48-11.65,25.44-.38,5.8,2.19,10.11,7.38,12.28,10.93,4.57,22.09,4.41,33-.11,4.3-1.78,7-5.39,7.01-10.24.02-10.58-3.3-19.94-11.25-27.2ZM97.66,78.58c-1.81,3.18-4.62,4.76-8.22,4.43-3.59-.32-6.14-2.32-7.32-5.79-1.49-4.34-.38-5.76,4.7-5.45,2.64,1.11,4.6-.76,6.33-2.88,1.6-1.95,2.8-1.36,3.94.36,1.98,2.99,2.39,6.1.56,9.32Z"/></g></svg>