<?xml version="1.0" encoding="UTF-8"?><svg id="Camada_2" xmlns="http://www.w3.org/2000/svg" viewBox="0 0 541.45 83.36"><defs><style>.cls-1,.cls-2{stroke-width:0px;}.cls-2{fill:#5a00fb;}</style></defs><g id="Camada_1-2"><path class="cls-2" d="M478.07,41.34c0-6.93.18-13.86-.08-20.77-.12-3.09.98-3.82,3.78-3.6,2.76.21,5.56.17,8.32,0,2.18-.13,3.03.51,2.94,2.82-.17,4.47.04,8.95-.09,13.42-.06,1.99.64,2.54,2.57,2.52,9.4-.08,18.79-.11,28.19.01,2.28.03,2.63-.89,2.58-2.82-.11-4.47.05-8.95-.07-13.42-.06-1.99.66-2.6,2.58-2.53,3.41.12,6.83.1,10.25,0,1.8-.05,2.42.58,2.41,2.39-.06,14.81-.05,29.62,0,44.43,0,1.59-.45,2.34-2.17,2.3-3.63-.08-7.26-.09-10.89,0-1.73.04-2.18-.7-2.16-2.29.07-4.69-.04-9.38.06-14.06.04-1.79-.5-2.41-2.35-2.39-9.5.08-19.01.09-28.51,0-2.06-.02-2.51.75-2.47,2.62.1,4.58-.03,9.16.06,13.74.04,1.79-.54,2.46-2.37,2.4-3.31-.11-6.63-.15-9.93.01-2.14.11-2.72-.67-2.69-2.73.1-7.35.04-14.7.04-22.05Z"/><path class="cls-1" d="M214.14,35.71c0-5.54.06-11.08-.03-16.62-.03-1.65.43-2.24,2.14-2.18,3.41.12,6.83.15,10.24,0,2.09-.09,2.73.59,2.7,2.68-.11,7.99-.05,15.98-.04,23.97.01,7.6,1.7,9.72,9.31,10.5,5.61.58,11.3.67,16.91-.34,4.84-.87,6.88-3.16,6.94-8.04.09-8.63.1-17.26,0-25.89-.03-2.21.59-3.01,2.86-2.89,3.3.18,6.62.11,9.92.02,1.71-.05,2.45.35,2.44,2.28-.09,10.76.07,21.52-.11,32.28-.12,7.36-3.49,11.42-10.67,13.13-9.45,2.26-19.09,1.48-28.67,1.41-4.57-.03-9.17-.16-13.64-1.46-6.9-2-10.13-6.05-10.25-13.18-.09-5.22-.02-10.44-.02-15.66h-.01Z"/><path class="cls-2" d="M445.19,66.1c-6.05-.18-13.34.5-20.53-.88-5.17-1-8.08-3.79-8.65-8.91-1.07-9.65-1.02-19.36-.1-29.01.55-5.77,3.43-8.28,9.16-9.52,4.01-.87,8.07-.72,12.12-.76,9.08-.08,18.15.03,27.23-.07,2.11-.02,2.86.63,2.72,2.73-.16,2.23-.15,4.48,0,6.71.14,2.01-.65,2.52-2.57,2.5-8.76-.08-17.51-.05-26.27-.03-6.68,0-7.76,1.11-7.73,7.85.02,3.94-.02,7.89.09,11.82.12,4.48,1.34,5.67,5.81,5.69,9.08.04,18.15.1,27.23-.04,2.53-.04,3.52.44,3.47,3.25-.15,8.66-.02,8.67-8.61,8.67h-13.37Z"/><path class="cls-1" d="M171.39,66.15c-5.87,0-11.74-.07-17.6.04-2.08.04-3.21-.33-2.96-2.75.3-2.94-1.2-6.78.57-8.62,1.79-1.87,5.65-.53,8.6-.57,7.04-.09,14.08-.01,21.12-.03,4.85-.02,6.08-1.12,6.21-5.97.12-4.36.08-8.73-.03-13.09-.13-4.86-1.44-6.16-6.42-6.27-5.01-.11-10.03-.02-15.04-.03-4.27,0-8.54-.06-12.8.03-1.63.03-2.29-.42-2.21-2.14.13-2.55.12-5.11,0-7.66-.08-1.71.6-2.19,2.23-2.17,12.05.15,24.11-.33,36.16.33,8.93.49,12.47,3.66,13,12.46.48,7.85.49,15.76.07,23.61-.47,8.78-4.35,12.09-13.31,12.51-2.13.1-4.26.28-6.39.31-3.73.05-7.47.01-11.2.02Z"/><path class="cls-1" d="M114.83,35.69c7.79,0,15.58.06,23.36-.04,1.89-.02,2.74.35,2.51,2.42-.34,3.02,1.31,7.09-.66,8.82-1.69,1.5-5.67.49-8.64.5-7.89.03-15.79-.04-23.68.07-1.13.02-3.14-1.12-3.34,1.06-.2,2.11.13,4.46,2.75,5.13,1.63.42,3.37.54,5.06.55,8.64.05,17.28.1,25.92-.03,2.16-.03,2.74.64,2.59,2.68-.21,2.95.91,6.78-.56,8.65-1.57,1.99-5.58.62-8.51.62-9.6,0-19.2.25-28.8-.26-9.65-.51-13.49-4.32-13.62-13.88-.06-4.68.07-9.37-.06-14.05-.05-1.84.53-2.3,2.32-2.27,7.79.09,15.58.04,23.36.04Z"/><path class="cls-2" d="M378.49,35.69c7.57,0,15.14.08,22.71-.05,2.18-.04,3.11.5,2.88,2.81-.28,2.84,1.14,6.51-.54,8.33-1.72,1.86-5.45.56-8.29.59-8,.09-16-.02-23.99.09-1.2.02-3.31-1.14-3.47,1.36-.14,2.22.37,4.37,3.03,4.91,1.55.32,3.16.48,4.75.49,8.53.05,17.06.09,25.59-.02,2.14-.03,3.13.41,2.93,2.77-.2,2.32-.12,4.68-.02,7.02.08,1.71-.64,2.19-2.25,2.17-12.26-.16-24.53.35-36.78-.38-8.33-.5-12.12-4.4-12.42-12.74-.17-4.89.03-9.79-.12-14.68-.06-2.04.49-2.73,2.63-2.7,7.78.13,15.57.05,23.35.05Z"/><path class="cls-2" d="M315.39,28.87c-8.97,0-17.94-.06-26.9.04-2.04.02-2.86-.46-2.68-2.62.24-2.95-.9-6.78.57-8.66,1.57-2.01,5.58-.62,8.51-.63,15.69-.08,31.39.02,47.08-.09,2.46-.02,3.49.56,3.23,3.16-.22,2.11-.18,4.27,0,6.38.17,2.06-.68,2.47-2.57,2.46-9.07-.09-18.15-.04-27.22-.04Z"/><path class="cls-1" d="M115.15,28.87c-7.69,0-15.38-.07-23.06.04-2.2.03-3-.28-2.39-2.76,1.11-4.52,3.72-7.28,8.26-8.26,4.1-.89,8.26-.95,12.42-.95,9.18,0,18.37.08,27.55-.05,2.3-.03,2.97.67,2.79,2.87-.18,2.22-.18,4.48,0,6.71.17,2.03-.56,2.48-2.5,2.45-7.69-.11-15.38-.05-23.06-.05Z"/><path class="cls-2" d="M378.49,28.86c-7.79,0-15.59-.07-23.38.05-2.13.03-2.48-.58-2.06-2.56.97-4.55,3.56-7.37,8.1-8.42,3.24-.76,6.55-.92,9.86-.94,9.93-.04,19.86.09,29.78-.08,2.74-.05,3.57.83,3.3,3.43-.2,2-.16,4.05,0,6.06.15,1.99-.6,2.53-2.54,2.51-7.68-.1-15.37-.04-23.06-.04Z"/><path class="cls-2" d="M323.03,51.13c0,4.15-.08,8.31.04,12.45.05,1.86-.37,2.69-2.44,2.6-3.41-.16-6.83-.1-10.24-.02-1.68.04-2.52-.32-2.51-2.26.08-8.73.06-17.46.01-26.19,0-1.5.45-2.08,2.01-2.05,3.73.08,7.47.09,11.2,0,1.58-.04,1.98.58,1.95,2.05-.07,4.47-.03,8.94-.03,13.41Z"/><path class="cls-1" d="M40.17,42.46c-2.45-2.24-2.54-3.93-.64-6.48,3.15-4.22,3.78-8.93,1.82-13.9-1.17-2.97-3.14-5.22-5.76-7.07-3.74-2.65-3.8-4.62-.44-7.44,2.31-1.94,4.66-3.85,7.48-6.18-7.53-.43-14.35-.59-21.11-1.29-4.35-.45-7.52.51-9.96,4.34-1.64,2.58-3.96,4.74-5.94,7.11-1.81,2.16-3.58,4.36-5.61,6.83,3.72.45,6.85-.24,10.01-.42,3.4-.19,4.33.74,4.08,4.1-.04.52-.27,1.03-.4,1.54-1.16,4.74-.39,9.12,2.65,12.97,1.75,2.21,1.45,3.83-.67,5.7-7.62,6.74-10.99,15.48-11.65,25.44-.38,5.8,2.19,10.11,7.38,12.28,10.93,4.57,22.09,4.41,33-.11,4.3-1.78,7-5.39,7.01-10.24.02-10.58-3.3-19.94-11.25-27.2ZM34.87,31.77c-1.81,3.18-4.62,4.76-8.22,4.43-3.59-.32-6.14-2.32-7.32-5.79-1.49-4.34-.38-5.76,4.7-5.45,2.64,1.11,4.6-.76,6.33-2.88,1.6-1.95,2.8-1.36,3.94.36,1.98,2.99,2.39,6.1.56,9.32Z"/></g></svg>